<?xml version="1.0" standalone="no"?>
<!DOCTYPE svg PUBLIC "-//W3C//DTD SVG 20010904//EN"
 "http://www.w3.org/TR/2001/REC-SVG-20010904/DTD/svg10.dtd">
<svg version="1.0" xmlns="http://www.w3.org/2000/svg"
 width="697.000000pt" height="358.000000pt" viewBox="0 0 697.000000 358.000000"
 preserveAspectRatio="xMidYMid meet">
<metadata>
Created by potrace 1.16, written by Peter Selinger 2001-2019
</metadata>
<g transform="translate(0.000000,358.000000) scale(0.100000,-0.100000)"
fill="#000000" stroke="none">
<path d="M4373 3562 c-8 -5 -6 -33 7 -107 11 -55 19 -118 19 -140 0 -36 -3
-42 -37 -59 -103 -51 -113 -58 -108 -71 2 -7 -1 -16 -7 -19 -7 -4 -30 -17 -52
-31 -22 -13 -58 -33 -80 -45 -85 -43 -100 -56 -97 -81 5 -36 23 -89 30 -89 4
0 29 8 57 19 52 20 139 50 165 58 11 3 22 -8 33 -33 10 -20 17 -38 15 -39 -2
-1 -28 -17 -58 -34 -62 -36 -69 -40 -160 -97 -36 -22 -87 -53 -114 -69 -49
-28 -113 -68 -131 -83 -5 -4 -18 -11 -28 -15 -9 -4 -20 -15 -24 -24 -6 -19
-93 -103 -105 -103 -4 0 -36 -21 -71 -47 -36 -27 -75 -55 -87 -63 -37 -24
-154 -108 -166 -118 -46 -40 -94 -60 -155 -65 -36 -3 -90 -14 -120 -25 -81
-28 -205 -67 -289 -90 -235 -64 -238 -65 -318 -59 -74 5 -98 14 -199 71 -30
17 -210 204 -241 251 -4 6 -20 19 -37 30 -28 19 -51 20 -370 23 -435 4 -430 5
-500 -62 -30 -28 -79 -63 -107 -78 -103 -50 -143 -68 -153 -68 -15 0 -183 -87
-227 -117 -21 -14 -38 -32 -38 -39 0 -19 -5 -18 -58 13 -77 44 -82 50 -82 110
l0 53 -35 0 c-20 0 -38 -6 -40 -12 -2 -7 -8 -83 -12 -168 l-8 -155 -65 -11
c-36 -7 -90 -12 -120 -13 -105 -2 -101 3 -98 -130 l3 -116 64 -7 c35 -4 65 -9
67 -10 2 -2 -9 -28 -23 -58 -14 -30 -34 -73 -43 -95 -24 -54 -117 -241 -145
-290 -13 -22 -24 -43 -24 -46 -3 -18 63 -29 179 -29 113 0 130 2 142 18 32 44
34 32 34 -171 0 -246 6 -268 132 -502 20 -39 160 -182 223 -230 80 -61 209
-120 330 -151 93 -24 112 -26 262 -21 137 4 174 8 237 29 156 52 290 129 382
221 41 41 128 143 128 151 0 4 10 20 22 36 26 35 57 38 114 12 36 -16 108 -17
1044 -17 l1005 0 74 27 c53 20 101 29 177 34 l103 7 7 57 6 58 44 12 44 13 0
60 c0 75 -16 130 -46 158 -21 20 -28 21 -61 11 -105 -30 -189 -52 -201 -52 -6
0 7 17 30 38 23 20 60 56 81 79 34 36 47 43 94 49 49 6 59 12 125 77 40 39 67
72 60 75 -7 2 -12 9 -12 16 0 7 -9 21 -19 30 -12 11 -18 27 -16 44 2 15 11 78
19 140 9 62 16 145 16 185 0 40 7 115 16 167 8 52 19 120 23 150 18 113 86
256 126 266 13 3 36 -1 51 -9 43 -22 104 -87 110 -116 3 -15 17 -53 32 -85 31
-68 32 -124 7 -291 -8 -53 -12 -116 -8 -140 4 -34 -1 -59 -32 -131 -20 -49
-45 -109 -55 -134 -49 -118 -70 -181 -70 -212 -1 -57 -16 -105 -43 -132 -15
-15 -24 -32 -22 -39 8 -19 88 -66 126 -73 54 -11 69 -22 69 -54 0 -59 103
-285 163 -358 144 -175 288 -275 482 -336 167 -52 395 -52 565 1 118 36 161
57 274 132 52 34 206 189 206 207 0 8 4 14 10 14 9 0 20 18 82 132 39 72 75
199 89 311 24 201 -27 430 -134 602 -50 80 -135 176 -167 188 -8 3 0 6 18 6
17 1 32 4 32 9 0 13 -17 34 -37 45 -11 7 -38 24 -59 38 -103 68 -219 115 -365
149 -87 20 -115 22 -305 18 -152 -4 -223 -9 -259 -21 -27 -8 -65 -17 -83 -19
-31 -3 -36 1 -61 47 -16 28 -38 66 -49 85 -11 19 -39 67 -61 105 -23 39 -53
90 -67 115 -15 25 -35 59 -44 75 -55 95 -65 112 -78 128 -9 9 -13 19 -11 21 2
2 38 -1 79 -6 41 -5 93 -8 114 -6 37 3 42 7 64 53 36 71 72 218 73 296 1 52
-4 79 -24 122 -32 70 -52 81 -141 75 -82 -6 -147 -35 -211 -95 -39 -37 -95
-111 -95 -127 0 -4 -8 -19 -19 -32 l-19 -24 -78 95 c-42 52 -83 109 -89 127
-15 40 -39 98 -66 156 -31 67 -55 122 -84 192 -52 127 -54 130 -102 130 l-43
0 0 55 0 55 -64 0 c-63 0 -64 1 -85 35 -20 34 -43 43 -68 27z m235 -673 l82
-11 0 -62 c0 -33 -3 -98 -6 -143 l-7 -81 -22 26 c-12 15 -37 50 -55 77 -19 28
-36 52 -40 55 -3 3 -13 16 -22 30 -10 14 -30 43 -46 65 -49 70 -49 68 -6 61
22 -3 76 -11 122 -17z m572 -798 c0 -5 6 -16 13 -23 20 -22 77 -108 77 -117 0
-5 7 -14 15 -21 8 -7 21 -24 28 -39 8 -14 28 -51 45 -83 31 -54 42 -108 22
-108 -5 0 -17 -8 -27 -18 -37 -37 -151 -132 -158 -132 -4 0 -5 37 -1 83 22
287 26 256 -43 387 -10 19 -22 45 -25 58 -7 19 -4 22 23 22 17 0 31 -4 31 -9z
m-1811 -632 c2 -7 11 -19 20 -28 9 -9 33 -41 54 -71 l38 -55 -82 -3 c-45 -2
-84 0 -87 3 -3 3 -8 44 -10 92 l-5 86 34 -7 c19 -3 36 -11 38 -17z m1081 -10
c0 -6 -8 -22 -18 -37 -23 -35 -36 -57 -67 -112 -68 -121 -83 -140 -115 -140
-41 0 -45 45 -9 97 15 21 44 65 65 98 21 33 44 66 51 73 7 7 13 19 13 25 0 9
13 11 40 9 22 -2 40 -8 40 -13z m-1954 -441 c-3 -13 -6 -51 -6 -85 l0 -63 -50
0 c-57 0 -58 1 -39 92 16 79 15 78 60 78 38 0 41 -2 35 -22z m-1716 -301 c16
-16 1451 -28 1485 -13 16 7 15 5 -3 -9 -22 -16 -70 -17 -763 -10 l-739 8 1 66
2 66 6 -52 c4 -28 9 -54 11 -56z"/>
</g>
</svg>
