<?xml version="1.0" standalone="no"?>
<!DOCTYPE svg PUBLIC "-//W3C//DTD SVG 20010904//EN"
 "http://www.w3.org/TR/2001/REC-SVG-20010904/DTD/svg10.dtd">
<svg version="1.0" xmlns="http://www.w3.org/2000/svg"
 width="300.000000pt" height="300.000000pt" viewBox="0 0 300.000000 300.000000"
 preserveAspectRatio="xMidYMid meet">
<metadata>
Created by potrace 1.16, written by Peter Selinger 2001-2019
</metadata>
<g transform="translate(0.000000,300.000000) scale(0.100000,-0.100000)"
fill="#000000" stroke="none">
<path d="M1755 2180 c-19 -36 -19 -90 -1 -115 14 -19 15 -19 34 -1 27 23 40
15 34 -24 -3 -19 -10 -30 -20 -30 -8 0 -23 -7 -32 -15 -8 -8 -34 -17 -55 -20
-68 -8 -100 -21 -103 -39 -6 -31 15 -45 56 -35 56 13 70 11 77 -11 7 -22 21
-22 48 1 12 11 30 15 57 12 22 -3 55 1 75 7 44 14 60 4 69 -45 5 -23 16 -40
34 -50 24 -14 24 -16 4 -11 -31 6 -46 -24 -26 -52 16 -23 12 -42 -9 -42 -7 0
-18 9 -25 20 -10 17 -69 54 -97 60 -5 1 -16 5 -23 8 -20 7 -93 -4 -132 -20
-19 -8 -37 -15 -40 -15 -4 0 -48 -23 -120 -64 -14 -8 -55 -38 -92 -66 -37 -29
-74 -53 -83 -53 -9 0 -35 -10 -58 -22 -53 -27 -192 -35 -243 -13 -19 8 -37 14
-40 14 -14 -1 -74 42 -70 50 17 27 -38 100 -78 103 -12 0 -32 2 -46 3 -14 1
-43 5 -64 9 -45 9 -227 -2 -247 -15 -7 -4 -14 -28 -15 -55 -2 -43 -5 -49 -35
-64 -45 -21 -88 -50 -118 -78 -16 -14 -35 -22 -50 -20 -25 3 -26 5 -23 63 5
90 -2 105 -43 105 l-35 0 0 -105 c0 -58 1 -108 3 -112 1 -4 10 -6 21 -5 11 2
16 -1 11 -7 -4 -7 -23 -10 -49 -6 -51 6 -71 -8 -79 -52 -5 -24 -1 -37 18 -57
l24 -26 -44 0 c-39 0 -45 -3 -51 -25 -10 -41 3 -74 33 -81 19 -5 30 -2 39 11
7 9 18 15 25 13 9 -3 6 -11 -8 -25 -12 -12 -19 -24 -16 -27 3 -3 -9 -13 -26
-23 -31 -18 -49 -52 -36 -72 6 -11 73 -5 90 9 16 12 46 3 62 -19 8 -12 25 -21
39 -21 18 0 24 -5 24 -23 0 -13 3 -27 8 -31 4 -4 8 -12 8 -17 1 -5 2 -10 4
-11 1 -2 3 -11 5 -21 11 -59 102 -153 192 -198 57 -29 71 -31 160 -32 77 0
108 4 144 20 50 22 135 84 160 116 10 12 31 22 50 24 19 1 213 3 433 3 338 1
404 3 437 17 38 15 76 63 61 77 -3 4 0 5 8 2 8 -3 29 7 47 22 30 25 36 41 88
257 56 228 57 230 39 263 -19 35 -13 52 11 32 12 -10 19 -10 27 -2 18 18 38
-33 38 -98 0 -32 7 -71 16 -89 15 -29 14 -33 -6 -66 -28 -45 -50 -127 -50
-186 0 -49 -15 -104 -35 -129 -18 -24 -17 -60 4 -60 9 0 21 4 27 9 5 4 21 11
35 15 21 4 28 1 37 -18 28 -62 162 -176 206 -176 9 0 16 -4 16 -8 0 -10 2 -10
94 -16 40 -3 86 1 111 9 24 7 46 10 49 7 4 -3 6 0 6 6 0 7 9 12 20 12 11 0 20
5 20 10 0 6 7 10 15 10 25 0 111 92 141 151 23 44 28 70 32 147 2 50 0 98 -5
105 -5 6 -18 35 -28 62 -10 28 -23 53 -28 57 -7 4 -7 11 1 20 8 10 6 21 -9 45
-24 37 -51 57 -139 100 -61 29 -71 31 -170 29 -87 -1 -112 -5 -147 -23 -24
-13 -43 -19 -43 -14 0 5 -6 16 -13 23 -15 15 -57 74 -57 80 0 2 12 4 28 3 25
0 27 3 30 43 3 40 -2 47 -30 43 -14 -2 -29 39 -20 57 14 28 14 119 0 158 -12
35 -14 36 -51 30 -22 -4 -52 -13 -68 -22 -28 -14 -29 -14 -29 10 0 71 -87 136
-182 136 -19 0 -28 5 -28 15 0 22 -23 28 -64 17 l-35 -10 -5 41 c-3 23 -7 53
-8 67 -2 17 -8 24 -20 22 -11 -2 -23 9 -33 28 -19 38 -30 38 -50 0z m-952
-672 c36 -8 63 -24 115 -71 37 -33 70 -65 74 -71 4 -6 8 -7 8 -2 0 5 8 2 19
-8 28 -25 110 -32 149 -12 36 19 42 20 42 6 0 -5 -11 -12 -25 -16 -14 -3 -25
-10 -25 -14 0 -5 -13 -11 -30 -15 -16 -4 -30 -10 -30 -14 0 -4 -17 -15 -37
-25 -29 -14 -38 -15 -44 -4 -8 15 -28 39 -95 114 -70 80 -130 99 -313 99
l-145 -1 43 19 c76 33 186 39 294 15z m1057 -89 c93 -33 -47 -122 -152 -97
-54 14 -98 44 -98 68 0 19 15 27 67 36 15 3 30 8 33 11 7 7 113 -6 150 -18z
m-355 -139 c7 -12 -38 -53 -80 -74 -16 -8 -40 -24 -52 -35 -12 -12 -25 -21
-28 -21 -8 0 -68 -42 -76 -53 -14 -19 -235 -28 -611 -25 -287 2 -398 6 -398
14 0 6 -7 17 -16 24 -8 8 -19 21 -24 30 -8 14 18 16 293 13 166 -1 340 -7 387
-12 47 -6 119 -13 160 -16 41 -3 94 -8 117 -10 31 -2 49 2 67 16 13 10 29 19
35 19 6 0 11 5 11 10 0 6 5 10 11 10 6 0 35 17 66 38 30 20 62 42 71 47 9 6
22 16 30 23 16 15 29 15 37 2z m1156 -9 c15 -5 44 -25 64 -43 146 -128 52
-364 -145 -361 -111 1 -200 94 -200 207 0 50 18 98 34 93 7 -2 10 -28 8 -69
-7 -123 62 -195 183 -192 40 2 96 37 126 81 25 35 30 53 28 91 -5 105 -99 182
-204 165 -39 -6 -59 23 -24 36 27 9 96 5 130 -8z m-681 -7 c0 -19 -19 -43
-113 -148 -110 -122 -157 -164 -191 -170 -38 -6 -283 -20 -346 -19 -90 1 -518
13 -655 19 l-140 5 -27 30 c-30 32 -36 51 -15 45 6 -3 161 -7 342 -10 329 -6
417 -11 445 -26 12 -7 329 -16 381 -11 25 2 51 25 222 204 42 45 77 85 77 89
0 5 5 8 10 8 6 0 10 -7 10 -16z"/>
</g>
</svg>
